# xmcd
#
# Track frame offsets: 
#        187
#        14637
#        27832
#        42390
#        55737
#        70430
#        88805
#        99032
#        122475
#        138965
#        159867
#
# Disc length: 2413 seconds
#
# Revision: 6
# Processed by: cddbd v1.5.2PL0 Copyright (c) Steve Scherf et al.
# Submitted via: ExactAudioCopyFreeDBPlugin 1.0
#
DISCID=87096b0b
DTITLE=Jhon Denver - Jhon Denver's Greatest Hits
DYEAR=1900
DGENRE=Country
TTITLE0=Take Me Home,Country Roads
TTITLE1=Follow Me
TTITLE2=Starwood In Aspen
TTITLE3=For Baby(For Bobbie)
TTITLE4=Rhymes And Reasons
TTITLE5=Leaving On A Jetplane
TTITLE6=The Eagle And The Hawk
TTITLE7=Sunshine On My Shoulders
TTITLE8=Goodbye Again
TTITLE9=Poems,Prayers And Promises
TTITLE10=Rocky Mountain High
EXTD=ID3G:   2
EXTT0=
EXTT1=
EXTT2=
EXTT3=
EXTT4=
EXTT5=
EXTT6=
EXTT7=
EXTT8=
EXTT9=
EXTT10=
PLAYORDER=
